<svg width="31" height="31" viewBox="0 0 31 31" fill="none" xmlns="http://www.w3.org/2000/svg">
<circle cx="15.5" cy="15.5" r="15.5" fill="#FAF7F3"/>
<path d="M12.35 8H18.65C21.05 8 23 9.95 23 12.35V18.65C23 19.8037 22.5417 20.9101 21.7259 21.7259C20.9101 22.5417 19.8037 23 18.65 23H12.35C9.95 23 8 21.05 8 18.65V12.35C8 11.1963 8.4583 10.0899 9.27409 9.27409C10.0899 8.4583 11.1963 8 12.35 8ZM12.2 9.5C11.4839 9.5 10.7972 9.78446 10.2908 10.2908C9.78446 10.7972 9.5 11.4839 9.5 12.2V18.8C9.5 20.2925 10.7075 21.5 12.2 21.5H18.8C19.5161 21.5 20.2028 21.2155 20.7092 20.7092C21.2155 20.2028 21.5 19.5161 21.5 18.8V12.2C21.5 10.7075 20.2925 9.5 18.8 9.5H12.2ZM19.4375 10.625C19.6861 10.625 19.9246 10.7238 20.1004 10.8996C20.2762 11.0754 20.375 11.3139 20.375 11.5625C20.375 11.8111 20.2762 12.0496 20.1004 12.2254C19.9246 12.4012 19.6861 12.5 19.4375 12.5C19.1889 12.5 18.9504 12.4012 18.7746 12.2254C18.5988 12.0496 18.5 11.8111 18.5 11.5625C18.5 11.3139 18.5988 11.0754 18.7746 10.8996C18.9504 10.7238 19.1889 10.625 19.4375 10.625ZM15.5 11.75C16.4946 11.75 17.4484 12.1451 18.1517 12.8483C18.8549 13.5516 19.25 14.5054 19.25 15.5C19.25 16.4946 18.8549 17.4484 18.1517 18.1517C17.4484 18.8549 16.4946 19.25 15.5 19.25C14.5054 19.25 13.5516 18.8549 12.8483 18.1517C12.1451 17.4484 11.75 16.4946 11.75 15.5C11.75 14.5054 12.1451 13.5516 12.8483 12.8483C13.5516 12.1451 14.5054 11.75 15.5 11.75ZM15.5 13.25C14.9033 13.25 14.331 13.4871 13.909 13.909C13.4871 14.331 13.25 14.9033 13.25 15.5C13.25 16.0967 13.4871 16.669 13.909 17.091C14.331 17.5129 14.9033 17.75 15.5 17.75C16.0967 17.75 16.669 17.5129 17.091 17.091C17.5129 16.669 17.75 16.0967 17.75 15.5C17.75 14.9033 17.5129 14.331 17.091 13.909C16.669 13.4871 16.0967 13.25 15.5 13.25Z" fill="#01375E"/>
</svg>
