<svg width="31" height="32" viewBox="0 0 31 32" fill="none" xmlns="http://www.w3.org/2000/svg">
<circle cx="15.5" cy="16" r="15.5" fill="#16375B"/>
<path d="M12.35 8.5H18.65C21.05 8.5 23 10.45 23 12.85V19.15C23 20.3037 22.5417 21.4101 21.7259 22.2259C20.9101 23.0417 19.8037 23.5 18.65 23.5H12.35C9.95 23.5 8 21.55 8 19.15V12.85C8 11.6963 8.4583 10.5899 9.27409 9.77409C10.0899 8.9583 11.1963 8.5 12.35 8.5ZM12.2 10C11.4839 10 10.7972 10.2845 10.2908 10.7908C9.78446 11.2972 9.5 11.9839 9.5 12.7V19.3C9.5 20.7925 10.7075 22 12.2 22H18.8C19.5161 22 20.2028 21.7155 20.7092 21.2092C21.2155 20.7028 21.5 20.0161 21.5 19.3V12.7C21.5 11.2075 20.2925 10 18.8 10H12.2ZM19.4375 11.125C19.6861 11.125 19.9246 11.2238 20.1004 11.3996C20.2762 11.5754 20.375 11.8139 20.375 12.0625C20.375 12.3111 20.2762 12.5496 20.1004 12.7254C19.9246 12.9012 19.6861 13 19.4375 13C19.1889 13 18.9504 12.9012 18.7746 12.7254C18.5988 12.5496 18.5 12.3111 18.5 12.0625C18.5 11.8139 18.5988 11.5754 18.7746 11.3996C18.9504 11.2238 19.1889 11.125 19.4375 11.125ZM15.5 12.25C16.4946 12.25 17.4484 12.6451 18.1517 13.3483C18.8549 14.0516 19.25 15.0054 19.25 16C19.25 16.9946 18.8549 17.9484 18.1517 18.6517C17.4484 19.3549 16.4946 19.75 15.5 19.75C14.5054 19.75 13.5516 19.3549 12.8483 18.6517C12.1451 17.9484 11.75 16.9946 11.75 16C11.75 15.0054 12.1451 14.0516 12.8483 13.3483C13.5516 12.6451 14.5054 12.25 15.5 12.25ZM15.5 13.75C14.9033 13.75 14.331 13.9871 13.909 14.409C13.4871 14.831 13.25 15.4033 13.25 16C13.25 16.5967 13.4871 17.169 13.909 17.591C14.331 18.0129 14.9033 18.25 15.5 18.25C16.0967 18.25 16.669 18.0129 17.091 17.591C17.5129 17.169 17.75 16.5967 17.75 16C17.75 15.4033 17.5129 14.831 17.091 14.409C16.669 13.9871 16.0967 13.75 15.5 13.75Z" fill="white"/>
</svg>
