<svg width="31" height="31" viewBox="0 0 31 31" fill="none" xmlns="http://www.w3.org/2000/svg">
<circle cx="15.5" cy="15.5" r="15.5" fill="#FAF7F3"/>
<path d="M10.7 7C10.2491 7 9.81673 7.17445 9.49792 7.48499C9.17911 7.79552 9 8.21669 9 8.65584C9 9.095 9.17911 9.51617 9.49792 9.8267C9.81673 10.1372 10.2491 10.3117 10.7 10.3117C11.1509 10.3117 11.5833 10.1372 11.9021 9.8267C12.2209 9.51617 12.4 9.095 12.4 8.65584C12.4 8.21669 12.2209 7.79552 11.9021 7.48499C11.5833 7.17445 11.1509 7 10.7 7ZM9.1 11.6753C9.07348 11.6753 9.04804 11.6856 9.02929 11.7039C9.01054 11.7221 9 11.7469 9 11.7727V21.9026C9 21.9564 9.0448 22 9.1 22H12.3C12.3265 22 12.352 21.9897 12.3707 21.9715C12.3895 21.9532 12.4 21.9284 12.4 21.9026V11.7727C12.4 11.7469 12.3895 11.7221 12.3707 11.7039C12.352 11.6856 12.3265 11.6753 12.3 11.6753H9.1ZM14.3 11.6753C14.2735 11.6753 14.248 11.6856 14.2293 11.7039C14.2105 11.7221 14.2 11.7469 14.2 11.7727V21.9026C14.2 21.9564 14.2448 22 14.3 22H17.5C17.5265 22 17.552 21.9897 17.5707 21.9715C17.5895 21.9532 17.6 21.9284 17.6 21.9026V16.4481C17.6 16.0606 17.758 15.6889 18.0393 15.4149C18.3206 15.1409 18.7022 14.987 19.1 14.987C19.4978 14.987 19.8794 15.1409 20.1607 15.4149C20.442 15.6889 20.6 16.0606 20.6 16.4481V21.9026C20.6 21.9564 20.6448 22 20.7 22H23.9C23.9265 22 23.952 21.9897 23.9707 21.9715C23.9895 21.9532 24 21.9284 24 21.9026V15.1857C24 13.2945 22.312 11.8156 20.38 11.9862C19.7822 12.0392 19.1967 12.1833 18.6448 12.4132L17.6 12.8496V11.7727C17.6 11.7469 17.5895 11.7221 17.5707 11.7039C17.552 11.6856 17.5265 11.6753 17.5 11.6753H14.3Z" fill="#01375E"/>
</svg>
