<svg xmlns="http://www.w3.org/2000/svg" width="86.454" height="73.302" viewBox="0 0 86.454 73.302">
    <path d="M119.4,34.053c.234.448-.078.812-.208,1.176A71.188,71.188,0,0,1,108.5,55.074c-.545.706-.6,1.127.162,1.626a12.613,12.613,0,0,1,1.146.958c1.805,1.507,1.814,1.514,3.284-.4a79.856,79.856,0,0,0,8.92-14.313c.1-.2.216-.388.36-.643a1.7,1.7,0,0,1-.213,1.285A60.487,60.487,0,0,1,114,59.6c-.554.762-.5,1.128.25,1.7a116.93,116.93,0,0,0,21.333,13.263c.29.136.683.163.869.667a65.4,65.4,0,0,1-6.313-2.256,84.092,84.092,0,0,1-17.724-9.622c-.651-.465-.985-.4-1.472.2-1.015,1.248-2.082,2.458-3.188,3.626-.486.512-.528.749.086,1.207a107.478,107.478,0,0,0,17.188,10.6c.273.132.539.278.8.435.042.025.031.135.078.389-1.846-.688-3.619-1.3-5.359-2a73.707,73.707,0,0,1-14.4-7.583c-.606-.417-.99-.455-1.547.115-1.122,1.143-2.343,2.192-3.589,3.34a87.921,87.921,0,0,0,14.829,8.933c-.594.317-.963.006-1.322-.118a65.146,65.146,0,0,1-14.6-6.894,1.013,1.013,0,0,0-1.408.026c-1.1.893-2.253,1.714-3.516,2.662a100.01,100.01,0,0,0,12.138,7.464c-.42-.136-.842-.27-1.261-.409q-.708-.239-1.412-.483a51.136,51.136,0,0,1-10.483-4.9,1.306,1.306,0,0,0-1.629,0,54.1,54.1,0,0,1-13.879,5.939,79.911,79.911,0,0,0,12.855-7.6c-1.295-.978-2.529-1.881-3.728-2.828-.507-.4-.829-.08-1.211.163a66.641,66.641,0,0,1-14.51,6.829,2.2,2.2,0,0,1-1.575.231,87.222,87.222,0,0,0,8.362-4.519c2.022-1.25,3.977-2.6,5.934-3.944.7-.484.6-.744.022-1.224a30.91,30.91,0,0,1-2.885-2.633c-.583-.622-.975-.555-1.616-.119A77.664,77.664,0,0,1,61.18,79.489a1.975,1.975,0,0,1-1.438.205,94.738,94.738,0,0,0,10.106-5.433c2.934-1.816,5.766-3.78,8.545-5.826.625-.46.664-.741.131-1.3-1.107-1.166-2.176-2.374-3.194-3.62-.46-.564-.777-.631-1.388-.195A86.4,86.4,0,0,1,52.031,74.524a3.069,3.069,0,0,1-2.031.37,96.454,96.454,0,0,0,11.023-5.937A128.192,128.192,0,0,0,72.142,61.2c.476-.37.883-.615.347-1.341a59.871,59.871,0,0,1-8.231-15.975c-.123-.354-.5-.664-.329-1.149.528.167.558.651.728.993A87.908,87.908,0,0,0,74,58.323c.578.748.966.712,1.577.122.879-.85,2.413-1.429,2.6-2.471.169-.971-1.19-1.909-1.864-2.869A74.594,74.594,0,0,1,66.46,33.361c.45-.07.432.3.524.5A96.07,96.07,0,0,0,79.762,53.589c.493.6.768.635,1.3.084a32.272,32.272,0,0,1,2.756-2.6c.633-.521.592-.863.108-1.462A82.247,82.247,0,0,1,71.331,27.93c-.667-1.694-1.272-3.413-2.016-5.419a2.85,2.85,0,0,1,.924,1.366A111.593,111.593,0,0,0,85.956,47.71c.474.566.758.567,1.236.032,1.071-1.2,2.166-2.385,3.311-3.515.533-.526.478-.851.024-1.407A91.786,91.786,0,0,1,76.356,18.878c-.669-1.662-1.255-3.36-1.875-5.043-.006-.016.047-.055.084-.1.471,0,.463.429.6.707A122.809,122.809,0,0,0,92.279,40.24c.661.784,1,.9,1.73.032a121.02,121.02,0,0,0,17.6-26.841c.111-.238.228-.474.4-.841a1.557,1.557,0,0,1-.158,1.158A92.327,92.327,0,0,1,95.9,42.673c-.531.654-.635,1.059.023,1.684,1.11,1.054,2.166,2.173,3.175,3.325.51.582.784.584,1.287-.015a114.041,114.041,0,0,0,14.055-20.551c.633-1.213,1.243-2.437,1.907-3.744.287.492.018.813-.093,1.131a82.809,82.809,0,0,1-13.6,24.756c-.7.879-.776,1.4.13,2.113a24.882,24.882,0,0,1,2.435,2.272c.523.54.843.535,1.336-.069A98.524,98.524,0,0,0,118.315,35.9c.295-.579.591-1.159.895-1.734.029-.053.121-.074.195-.116M93.143,55.436a3.408,3.408,0,0,0,.386-.3c1.264-1.327,2.515-2.666,3.789-3.983.355-.368.145-.578-.108-.848-1.2-1.281-2.406-2.56-3.583-3.863-.38-.423-.6-.374-.971.033q-1.761,1.962-3.6,3.847c-.364.373-.308.587.021.927,1.193,1.235,2.357,2.5,3.538,3.746a5.531,5.531,0,0,0,.53.441M90.97,57.607c-.161-.188-.281-.337-.41-.476-1.2-1.287-2.414-2.555-3.579-3.87-.374-.423-.587-.3-.911.007-1.026.971-2.047,1.949-3.117,2.871-.453.39-.482.642-.069,1.072,1.164,1.212,2.312,2.44,3.424,3.7.445.5.756.439,1.192.012,1.01-.988,2.056-1.94,3.085-2.908.132-.125.25-.264.385-.407m12.9-1.017c-.195-.162-.377-.3-.547-.457-.99-.9-2.015-1.773-2.95-2.73-.528-.541-.793-.43-1.241.079-1.086,1.238-2.217,2.437-3.374,3.609-.39.394-.416.622,0,.992,1.059.941,2.1,1.9,3.115,2.893.387.378.646.416,1.024,0,1.188-1.3,2.4-2.574,3.605-3.864a5.14,5.14,0,0,0,.367-.524M84.727,63.133a2.8,2.8,0,0,0-.188-.26c-1.285-1.413-2.578-2.818-3.855-4.236-.328-.364-.527-.086-.757.1-.925.738-1.834,1.5-2.78,2.211-.427.32-.535.563-.134.988q1.847,1.961,3.644,3.965c.339.379.591.359.95.052.9-.77,1.824-1.511,2.731-2.272.165-.14.4-.246.389-.546m24.908-1.684a2.671,2.671,0,0,0-.294-.343c-1.012-.818-2.041-1.615-3.041-2.447-.4-.331-.582-.1-.832.175-1.177,1.31-2.347,2.627-3.566,3.9-.423.442-.309.668.1.988.871.687,1.736,1.384,2.569,2.117.47.414.8.423,1.229-.067,1.11-1.267,2.266-2.492,3.4-3.739.154-.169.278-.364.441-.581M97.252,63.56a2.151,2.151,0,0,0-.262-.373c-1.185-1.077-2.384-2.138-3.561-3.224-.374-.346-.527-.014-.734.172-1.05.942-2.075,1.915-3.152,2.824-.475.4-.484.664-.029,1.07,1.054.938,2.083,1.9,3.107,2.875.349.33.6.453,1.024.041,1.062-1.041,2.181-2.022,3.275-3.03.111-.1.206-.219.332-.355M86.888,65.287a3.758,3.758,0,0,0-.341.206c-1.055.819-2.1,1.648-3.163,2.462-.481.37-.1.565.137.789,1.088,1.017,2.2,2.011,3.262,3.053.407.4.672.306,1.053-.013.906-.762,1.836-1.5,2.778-2.212.45-.343.455-.59.02-.965-1.129-.97-2.223-1.982-3.332-2.975-.135-.12-.279-.233-.414-.345M99.47,65.3a1.56,1.56,0,0,0-.305.163c-1.247,1.125-2.494,2.25-3.732,3.387-.325.3-.009.465.182.622.977.795,1.978,1.564,2.937,2.38.379.324.619.274.956-.046q1.576-1.5,3.2-2.951c.483-.428.547-.713-.045-1.123-.941-.652-1.823-1.387-2.73-2.088-.149-.114-.3-.224-.465-.344M93.127,76.9a1.651,1.651,0,0,0,.336-.156c1.115-.875,2.232-1.749,3.332-2.643.473-.385.031-.579-.221-.773-.971-.749-1.964-1.47-2.922-2.234a.67.67,0,0,0-.994,0c-.925.743-1.866,1.47-2.84,2.151-.551.384-.636.662-.058,1.093.951.711,1.868,1.468,2.805,2.2.178.139.38.248.562.364"
          transform="translate(-50 -12.59)" fill="#887955"/>
</svg>