<svg width="30" height="30" viewBox="0 0 30 30" fill="none" xmlns="http://www.w3.org/2000/svg">
<path d="M15 0C13.355 0 12 1.35499 12 3H10H8C6.35503 3 5 4.35503 5 6V24C5 25.645 6.35503 27 8 27H22C23.645 27 25 25.645 25 24V6C25 4.35503 23.645 3 22 3H20H18C18 1.35499 16.645 0 15 0ZM15 2C15.5641 2 16 2.43587 16 3C16 3.56413 15.5641 4 15 4C14.4359 4 14 3.56413 14 3C14 2.43587 14.4359 2 15 2ZM8 5H10C10 6.105 10.895 7 12 7H18C19.105 7 20 6.105 20 5H22C22.565 5 23 5.43497 23 6V24C23 24.565 22.565 25 22 25H8C7.43497 25 7 24.565 7 24V6C7 5.43497 7.43497 5 8 5ZM15 11C13.233 11 12.501 12.227 12.502 13.707C12.502 14.206 12.7207 14.707 12.7207 14.707C12.6317 14.762 12.4864 14.937 12.5234 15.248C12.5914 15.827 12.8237 15.9743 12.9707 15.9863C13.0267 16.5263 13.812 17.2184 14 17.3184V18.2227C13.626 19.4397 11 19 11 21H19C19 19 16.375 19.4397 16.002 18.2227V17.3184C16.19 17.2184 16.9753 16.5263 17.0312 15.9863C17.1783 15.9743 17.4105 15.827 17.4785 15.248C17.5145 14.937 17.3673 14.762 17.2793 14.707C17.2793 14.707 17.5 14.254 17.5 13.707C17.5 12.611 17.103 11.6777 16.25 11.6777C16.25 11.6777 15.954 11 15 11Z" fill="#9BDBDE"/>
</svg>
